<svg xmlns="http://www.w3.org/2000/svg" xmlns:xlink="http://www.w3.org/1999/xlink" width="148" height="82" viewBox="0 0 148 82"><svg width="16" height="16" viewBox="0 0 16 16"><path fill="#fe504f" d="M1.063.594c.639-.64 2.571-.748 2.585-.408S5.387 4.282 5.403 4.62c.015.338-1.137 1.494-1.474 1.832-.334.335 2.254 3.266 2.303 3.322.055.05 2.98 2.643 3.314 2.309.337-.338 1.489-1.492 1.826-1.477s4.087 1.744 4.425 1.759c.338.014.231 1.95-.408 2.591-.546.547-3.376 2.535-8.296-1.014-.54-.311-1.394-1.024-2.69-2.323l-.003-.002-.003-.003-.003-.003-.002-.002C3.097 10.31 2.385 9.453 2.075 8.912-1.467 3.98.517 1.143 1.063.596z"/></svg><svg width="16" height="16" viewBox="0 0 16 16" x="66"><path fill="#fe504f" d="M8 0a5 5 0 0 0-5 5c0 5 5 11 5 11s5-6 5-11a5 5 0 0 0-5-5zm0 8.063a3.063 3.063 0 1 1 0-6.126 3.063 3.063 0 0 1 0 6.126zM6.063 5a1.938 1.938 0 1 1 3.876 0 1.938 1.938 0 0 1-3.876 0z"/></svg><svg width="16" height="16" viewBox="0 0 16 16" y="66"><path fill="#fe504f" d="M14 2.5H2a2 2 0 0 0-2 2V11a2 2 0 0 0 2 2h12a2 2 0 0 0 2-2V4.5a2 2 0 0 0-2-2zM1 5.125L4.499 7.75 1 10.375v-5.25zM15 11c0 .552-.449 1-1 1H2c-.551 0-1-.448-1-1l3.916-2.938L7.1 9.701a1.502 1.502 0 0 0 1.799 0l2.184-1.639L14.999 11zm0-.625L11.5 7.75 15 5.125v5.25zM8.6 9.301c-.175.131-.382.2-.6.2s-.425-.069-.6-.2L1 4.5c0-.551.449-1 1-1h12c.551 0 1 .449 1 1L8.599 9.301z"/></svg></svg>